<svg id="Complaints_Suggestions_Icon" data-name="Complaints/Suggestions Icon" xmlns="http://www.w3.org/2000/svg" width="39.454" height="38.461" viewBox="0 0 39.454 38.461">
  <defs>
    <style>
      .cls-1 {
        fill: #ac3236;
      }
    </style>
  </defs>
  <rect id="Rectangle_1476" data-name="Rectangle 1476" class="cls-1" width="35.591" height="19.589" transform="translate(1.931 18.872)"/>
  <rect id="Rectangle_1477" data-name="Rectangle 1477" class="cls-1" width="39.454" height="2.483" transform="translate(0 15.285)"/>
  <path id="Path_2821" data-name="Path 2821" class="cls-1" d="M-1929.423,1166.843q-9.5,0-19,0c-.176,0-.421.105-.517-.1s.137-.32.238-.469c.79-1.164,1.594-2.319,2.362-3.5a1.041,1.041,0,0,1,1-.521c3.141.021,6.283,0,9.424.021.457,0,.609-.136.68-.59.448-2.88.934-5.755,1.4-8.633.047-.292.071-.513.493-.44q5.578.961,11.163,1.873c.432.07.486.239.423.607-.371,2.181-.727,4.365-1.094,6.547-.1.625-.112.625.53.625,2.97,0,5.94.006,8.91-.008a.835.835,0,0,1,.8.407c.8,1.217,1.635,2.415,2.452,3.624.1.149.3.319.21.481s-.347.07-.529.07Q-1919.947,1166.845-1929.423,1166.843Z" transform="translate(1949.206 -1152.599)"/>
</svg>
