<svg id="Group_1206" data-name="Group 1206" xmlns="http://www.w3.org/2000/svg" width="34.91" height="34.473" viewBox="0 0 34.91 34.473">
  <defs>
    <style>
      .cls-1 {
        fill: #ac3236;
      }
    </style>
  </defs>
  <g id="Group_1205" data-name="Group 1205" transform="translate(5.441 15.161)">
    <rect id="Rectangle_1491" data-name="Rectangle 1491" class="cls-1" width="3.417" height="3.417" transform="translate(4.911)"/>
    <rect id="Rectangle_1492" data-name="Rectangle 1492" class="cls-1" width="3.417" height="3.417" transform="translate(10.25)"/>
    <rect id="Rectangle_1493" data-name="Rectangle 1493" class="cls-1" width="3.417" height="3.417" transform="translate(15.161)"/>
    <rect id="Rectangle_1494" data-name="Rectangle 1494" class="cls-1" width="3.417" height="3.417"/>
    <rect id="Rectangle_1495" data-name="Rectangle 1495" class="cls-1" width="3.417" height="3.417" transform="translate(4.911 4.698)"/>
    <rect id="Rectangle_1496" data-name="Rectangle 1496" class="cls-1" width="3.417" height="3.417" transform="translate(10.25 4.698)"/>
    <rect id="Rectangle_1497" data-name="Rectangle 1497" class="cls-1" width="3.417" height="3.417" transform="translate(15.161 4.698)"/>
    <rect id="Rectangle_1498" data-name="Rectangle 1498" class="cls-1" width="3.417" height="3.417" transform="translate(0 4.698)"/>
    <rect id="Rectangle_1499" data-name="Rectangle 1499" class="cls-1" width="3.417" height="3.417" transform="translate(9.823 9.396)"/>
    <rect id="Rectangle_1500" data-name="Rectangle 1500" class="cls-1" width="3.417" height="3.417" transform="translate(15.161 9.396)"/>
    <rect id="Rectangle_1501" data-name="Rectangle 1501" class="cls-1" width="3.417" height="3.417" transform="translate(20.073 9.396)"/>
    <rect id="Rectangle_1502" data-name="Rectangle 1502" class="cls-1" width="3.417" height="3.417" transform="translate(20.073 4.698)"/>
    <rect id="Rectangle_1503" data-name="Rectangle 1503" class="cls-1" width="3.417" height="3.417" transform="translate(4.911 9.396)"/>
  </g>
  <rect id="Rectangle_1504" data-name="Rectangle 1504" class="cls-1" width="2.135" height="7.474" transform="translate(7.256)"/>
  <rect id="Rectangle_1505" data-name="Rectangle 1505" class="cls-1" width="2.135" height="7.474" transform="translate(25.193)"/>
  <path id="Path_2840" data-name="Path 2840" class="cls-1" d="M-1935.48,1528.043v-1.713h-6.266" transform="translate(1941.745 -1523.553)"/>
  <path id="Path_2841" data-name="Path 2841" class="cls-1" d="M-1913.174,1526.329h-.217v1.713h-.041a2.872,2.872,0,0,1,.831,2.024,2.883,2.883,0,0,1-2.882,2.883,2.883,2.883,0,0,1-2.883-2.883,2.873,2.873,0,0,1,.831-2.024h-.006v-1.713h-13.786v1.713h-.041a2.874,2.874,0,0,1,.831,2.024,2.883,2.883,0,0,1-2.883,2.883,2.883,2.883,0,0,1-2.883-2.883,2.873,2.873,0,0,1,.831-2.024h-.006v-1.713h-6.265v31.7h34.909v-31.7Zm3.135,28.4h-28.614v-20.286h28.614Z" transform="translate(1941.745 -1523.553)"/>
  <path id="Path_2842" data-name="Path 2842" class="cls-1" d="M-1896.683,1526.329h-13.889v1.713h-.041" transform="translate(1920.989 -1523.553)"/>
</svg>
