<svg id="Council_Members_Icon" data-name="Council Members Icon" xmlns="http://www.w3.org/2000/svg" width="32.528" height="33.831" viewBox="0 0 32.528 33.831">
  <defs>
    <style>
      .cls-1 {
        fill: #ac3236;
      }
    </style>
  </defs>
  <path id="Path_2849" data-name="Path 2849" class="cls-1" d="M-1640.9,1574.212l5.568,15.48,5.565-15.491c3.1,1.251,6.141,2.427,9.129,3.719a2.524,2.524,0,0,1,1.535,2.343c.036,2.516.05,5.034.007,7.551-.023,1.292-.879,1.923-2.458,1.924q-10.839.008-21.678,0c-1.939,0-3.879.013-5.818,0-1.838-.013-2.538-.682-2.542-2.4-.005-2.2.011-4.4,0-6.594a3.121,3.121,0,0,1,2.214-3.146C-1646.588,1576.494-1643.8,1575.372-1640.9,1574.212Z" transform="translate(1651.598 -1555.917)"/>
  <path id="Path_2850" data-name="Path 2850" class="cls-1" d="M-1614.3,1531.141a10.881,10.881,0,0,1-4.278,8.554,7.116,7.116,0,0,1-9.139-.2c-3.407-2.826-4.886-7.778-3.474-11.632,1.33-3.634,5.127-5.718,9.492-5.21a8.106,8.106,0,0,1,7.315,7.073C-1614.345,1530.153-1614.337,1530.579-1614.3,1531.141Z" transform="translate(1639.279 -1522.581)"/>
</svg>
