<svg xmlns="http://www.w3.org/2000/svg" width="39.527" height="30.328" viewBox="0 0 39.527 30.328">
  <defs>
    <style>
      .cls-1 {
        fill: #ac3236;
      }
    </style>
  </defs>
  <path id="Path_2825" data-name="Path 2825" class="cls-1" d="M-2183.274,1176v3.519h3.211c-.293,2.155-.568,4.193-.849,6.231q-.99,7.157-1.984,14.313c-.261,1.89-.493,3.783-.794,5.667-.035.221-.408.4-.649.569-.086.058-.244.01-.37.01h-34.881V1176Zm-31.767,8.145h26.19v-3.732h-26.19Zm10.943,18.1v-8.874h-10.943v8.874Zm-10.942-12.266h22.8v-3.918h-22.8Zm14.326,3.377v2.094h11.654v-2.094Zm11.681,7.172h-11.7v1.9h11.7Zm0-3.363h-11.7v1.662h11.7Z" transform="translate(2219.59 -1176)"/>
</svg>
