<svg id="Projects_Icon" data-name="Projects Icon" xmlns="http://www.w3.org/2000/svg" width="35.362" height="35.994" viewBox="0 0 35.362 35.994">
  <defs>
    <style>
      .cls-1 {
        fill: #ac3236;
      }
    </style>
  </defs>
  <rect id="Rectangle_1481" data-name="Rectangle 1481" class="cls-1" width="17.558" height="3.073" transform="translate(17.804 12.291)"/>
  <rect id="Rectangle_1482" data-name="Rectangle 1482" class="cls-1" width="8.779" height="2.634" transform="translate(26.583 8.34)"/>
  <rect id="Rectangle_1483" data-name="Rectangle 1483" class="cls-1" width="17.558" height="3.073" transform="translate(17.804 16.241)"/>
  <rect id="Rectangle_1484" data-name="Rectangle 1484" class="cls-1" width="17.558" height="3.073" transform="translate(17.804 20.192)"/>
  <rect id="Rectangle_1485" data-name="Rectangle 1485" class="cls-1" width="17.558" height="3.073" transform="translate(17.804 24.142)"/>
  <rect id="Rectangle_1486" data-name="Rectangle 1486" class="cls-1" width="17.558" height="3.073" transform="translate(17.804 28.093)"/>
  <rect id="Rectangle_1487" data-name="Rectangle 1487" class="cls-1" width="17.558" height="3.073" transform="translate(17.804 32.044)"/>
  <rect id="Rectangle_1488" data-name="Rectangle 1488" class="cls-1" width="1.756" height="6.584" transform="translate(30.095 1.756)"/>
  <path id="Path_2832" data-name="Path 2832" class="cls-1" d="M-1659.347,1168.779v-5.267h2.195l2.195-3.512h.878l1.756,3.512h2.195v2.195l16.68-5.706s1.756,1.494-1.317,2.5l-15.363,6.276v1.756h-1.756v25.459h-6.584v-24.581l-7.023,2.195s-1.756.439-.878-1.756Z" transform="translate(1666.616 -1160)"/>
</svg>
